# xmcd CD database file
#
# Track frame offsets:
#	150
#	26833
#	50645
#	68899
#	89382
#	107677
#	131052
#	157417
#	174282
#	193197
#	209784
#	235764
#	255969
#	273609
#	287987
#
# Disc length: 4075 seconds
#
# Revision: 0
# Processed by: cddbd v1.5.2PL0 Copyright (c) Steve Scherf et al.
# Submitted via: Feurio! 1.68 - http://www.feurio.com
#
DISCID=eb0fe90f
DTITLE=howlin wolf - the alternate london session
DYEAR=1900
DGENRE=Blues
TTITLE0=howlin wolf and friends - goin down slow
TTITLE1=howlin wolf and friends - killing floor
TTITLE2=howlin wolf and friends - i want to have a word with you
TTITLE3=howlin wolf and friends - worried about my baby
TTITLE4=howlin wolf and friends - the red rooster
TTITLE5=howlin wolf and friends - what a woman
TTITLE6=howlin wolf and friends - who`s been talking
TTITLE7=howlin wolf and friends - worried about my baby-alternate-
TTITLE8=howlin wolf and friends - i aint superstitious
TTITLE9=howlin wolf and friends - highway 49
TTITLE10=howlin wolf and friends - do the do
TTITLE11=howlin wolf and friends - poor boy
TTITLE12=howlin wolf and friends - i ain´t superstitious-mix-
TTITLE13=howlin wolf and friends - what a woman-mix-
TTITLE14=howlin wolf and friends - rockin´daddy
EXTD=
EXTT0=
EXTT1=
EXTT2=
EXTT3=
EXTT4=
EXTT5=
EXTT6=
EXTT7=
EXTT8=
EXTT9=
EXTT10=
EXTT11=
EXTT12=
EXTT13=
EXTT14=
PLAYORDER=
